<?xml version="1.0" encoding="UTF-8" standalone="no"?>
<!-- Created with Inkscape (http://www.inkscape.org/) -->

<svg
   version="1.1"
   id="svg1"
   width="453.54666"
   height="253.38667"
   viewBox="0 0 453.54666 253.38667"
   sodipodi:docname="Media_FPGA_Video_Coord_160120.svg"
   inkscape:version="1.4.2 (f4327f4, 2025-05-13)"
   inkscape:export-filename="Media_FPGA_Video_Coord_160120.pdf"
   inkscape:export-xdpi="96"
   inkscape:export-ydpi="96"
   xmlns:inkscape="http://www.inkscape.org/namespaces/inkscape"
   xmlns:sodipodi="http://sodipodi.sourceforge.net/DTD/sodipodi-0.dtd"
   xmlns="http://www.w3.org/2000/svg"
   xmlns:svg="http://www.w3.org/2000/svg">
  <defs
     id="defs1" />
  <sodipodi:namedview
     id="namedview1"
     pagecolor="#ffffff"
     bordercolor="#000000"
     borderopacity="0.25"
     inkscape:showpageshadow="2"
     inkscape:pageopacity="0.0"
     inkscape:pagecheckerboard="0"
     inkscape:deskcolor="#d1d1d1"
     inkscape:zoom="4.4714269"
     inkscape:cx="226.99689"
     inkscape:cy="126.69334"
     inkscape:window-width="3440"
     inkscape:window-height="1351"
     inkscape:window-x="-9"
     inkscape:window-y="-9"
     inkscape:window-maximized="1"
     inkscape:current-layer="g1">
    <inkscape:page
       x="0"
       y="0"
       inkscape:label="1"
       id="page1"
       width="453.54666"
       height="253.38667"
       margin="0"
       bleed="0" />
  </sodipodi:namedview>
  <g
     id="g1"
     inkscape:groupmode="layer"
     inkscape:label="1">
    <path
       id="path1"
       d="M 192.969,10 V 1786.68 H 3391 V 10 Z"
       style="fill:none;stroke:#000000;stroke-width:19.9966;stroke-linecap:round;stroke-linejoin:round;stroke-miterlimit:10;stroke-dasharray:none;stroke-opacity:1"
       transform="matrix(0.13333333,0,0,-0.13333333,0,253.38667)" />
    <path
       id="path2"
       d="M 192.969,543.004 V 1786.68"
       style="fill:none;stroke:#000000;stroke-width:9.99831;stroke-linecap:round;stroke-linejoin:round;stroke-miterlimit:10;stroke-dasharray:none;stroke-opacity:1"
       transform="matrix(0.13333333,0,0,-0.13333333,0,253.38667)" />
    <path
       id="path3"
       d="M 370.637,543.004 V 1786.68"
       style="fill:none;stroke:#000000;stroke-width:9.99831;stroke-linecap:round;stroke-linejoin:round;stroke-miterlimit:10;stroke-dasharray:none;stroke-opacity:1"
       transform="matrix(0.13333333,0,0,-0.13333333,0,253.38667)" />
    <path
       id="path4"
       d="M 548.305,543.004 V 1786.68"
       style="fill:none;stroke:#000000;stroke-width:9.99831;stroke-linecap:round;stroke-linejoin:round;stroke-miterlimit:10;stroke-dasharray:none;stroke-opacity:1"
       transform="matrix(0.13333333,0,0,-0.13333333,0,253.38667)" />
    <path
       id="path5"
       d="M 725.973,543.004 V 1786.68"
       style="fill:none;stroke:#000000;stroke-width:9.99831;stroke-linecap:round;stroke-linejoin:round;stroke-miterlimit:10;stroke-dasharray:none;stroke-opacity:1"
       transform="matrix(0.13333333,0,0,-0.13333333,0,253.38667)" />
    <path
       id="path6"
       d="M 903.641,543.004 V 1786.68"
       style="fill:none;stroke:#000000;stroke-width:9.99831;stroke-linecap:round;stroke-linejoin:round;stroke-miterlimit:10;stroke-dasharray:none;stroke-opacity:1"
       transform="matrix(0.13333333,0,0,-0.13333333,0,253.38667)" />
    <path
       id="path7"
       d="M 1081.31,543.004 V 1786.68"
       style="fill:none;stroke:#000000;stroke-width:9.99831;stroke-linecap:round;stroke-linejoin:round;stroke-miterlimit:10;stroke-dasharray:none;stroke-opacity:1"
       transform="matrix(0.13333333,0,0,-0.13333333,0,253.38667)" />
    <path
       id="path8"
       d="M 1258.98,543.004 V 1786.68"
       style="fill:none;stroke:#000000;stroke-width:9.99831;stroke-linecap:round;stroke-linejoin:round;stroke-miterlimit:10;stroke-dasharray:none;stroke-opacity:1"
       transform="matrix(0.13333333,0,0,-0.13333333,0,253.38667)" />
    <path
       id="path9"
       d="M 1436.65,543.004 V 1786.68"
       style="fill:none;stroke:#000000;stroke-width:9.99831;stroke-linecap:round;stroke-linejoin:round;stroke-miterlimit:10;stroke-dasharray:none;stroke-opacity:1"
       transform="matrix(0.13333333,0,0,-0.13333333,0,253.38667)" />
    <path
       id="path10"
       d="M 1614.32,543.004 V 1786.68"
       style="fill:none;stroke:#000000;stroke-width:9.99831;stroke-linecap:round;stroke-linejoin:round;stroke-miterlimit:10;stroke-dasharray:none;stroke-opacity:1"
       transform="matrix(0.13333333,0,0,-0.13333333,0,253.38667)" />
    <path
       id="path11"
       d="M 1791.98,543.004 V 1786.68"
       style="fill:none;stroke:#000000;stroke-width:9.99831;stroke-linecap:round;stroke-linejoin:round;stroke-miterlimit:10;stroke-dasharray:none;stroke-opacity:1"
       transform="matrix(0.13333333,0,0,-0.13333333,0,253.38667)" />
    <path
       id="path12"
       d="M 1969.65,543.004 V 1786.68"
       style="fill:none;stroke:#000000;stroke-width:9.99831;stroke-linecap:round;stroke-linejoin:round;stroke-miterlimit:10;stroke-dasharray:none;stroke-opacity:1"
       transform="matrix(0.13333333,0,0,-0.13333333,0,253.38667)" />
    <path
       id="path13"
       d="M 2147.32,543.004 V 1786.68"
       style="fill:none;stroke:#000000;stroke-width:9.99831;stroke-linecap:round;stroke-linejoin:round;stroke-miterlimit:10;stroke-dasharray:none;stroke-opacity:1"
       transform="matrix(0.13333333,0,0,-0.13333333,0,253.38667)" />
    <path
       id="path14"
       d="M 2324.99,543.004 V 1786.68"
       style="fill:none;stroke:#000000;stroke-width:9.99831;stroke-linecap:round;stroke-linejoin:round;stroke-miterlimit:10;stroke-dasharray:none;stroke-opacity:1"
       transform="matrix(0.13333333,0,0,-0.13333333,0,253.38667)" />
    <path
       id="path15"
       d="M 2502.66,543.004 V 1786.68"
       style="fill:none;stroke:#000000;stroke-width:9.99831;stroke-linecap:round;stroke-linejoin:round;stroke-miterlimit:10;stroke-dasharray:none;stroke-opacity:1"
       transform="matrix(0.13333333,0,0,-0.13333333,0,253.38667)" />
    <path
       id="path16"
       d="M 2680.33,543.004 V 1786.68"
       style="fill:none;stroke:#000000;stroke-width:9.99831;stroke-linecap:round;stroke-linejoin:round;stroke-miterlimit:10;stroke-dasharray:none;stroke-opacity:1"
       transform="matrix(0.13333333,0,0,-0.13333333,0,253.38667)" />
    <path
       id="path17"
       d="M 192.969,1786.68 H 2680.33"
       style="fill:none;stroke:#000000;stroke-width:9.99831;stroke-linecap:round;stroke-linejoin:round;stroke-miterlimit:10;stroke-dasharray:none;stroke-opacity:1"
       transform="matrix(0.13333333,0,0,-0.13333333,0,253.38667)" />
    <path
       id="path18"
       d="M 192.969,1609.02 H 2680.33"
       style="fill:none;stroke:#000000;stroke-width:9.99831;stroke-linecap:round;stroke-linejoin:round;stroke-miterlimit:10;stroke-dasharray:none;stroke-opacity:1"
       transform="matrix(0.13333333,0,0,-0.13333333,0,253.38667)" />
    <path
       id="path19"
       d="M 192.969,1431.35 H 2680.33"
       style="fill:none;stroke:#000000;stroke-width:9.99831;stroke-linecap:round;stroke-linejoin:round;stroke-miterlimit:10;stroke-dasharray:none;stroke-opacity:1"
       transform="matrix(0.13333333,0,0,-0.13333333,0,253.38667)" />
    <path
       id="path20"
       d="M 192.969,1253.68 H 2680.33"
       style="fill:none;stroke:#000000;stroke-width:9.99831;stroke-linecap:round;stroke-linejoin:round;stroke-miterlimit:10;stroke-dasharray:none;stroke-opacity:1"
       transform="matrix(0.13333333,0,0,-0.13333333,0,253.38667)" />
    <path
       id="path21"
       d="M 192.969,1076.01 H 2680.33"
       style="fill:none;stroke:#000000;stroke-width:9.99831;stroke-linecap:round;stroke-linejoin:round;stroke-miterlimit:10;stroke-dasharray:none;stroke-opacity:1"
       transform="matrix(0.13333333,0,0,-0.13333333,0,253.38667)" />
    <path
       id="path22"
       d="M 192.969,898.34 H 2680.33"
       style="fill:none;stroke:#000000;stroke-width:9.99831;stroke-linecap:round;stroke-linejoin:round;stroke-miterlimit:10;stroke-dasharray:none;stroke-opacity:1"
       transform="matrix(0.13333333,0,0,-0.13333333,0,253.38667)" />
    <path
       id="path23"
       d="M 192.969,720.672 H 2680.33"
       style="fill:none;stroke:#000000;stroke-width:9.99831;stroke-linecap:round;stroke-linejoin:round;stroke-miterlimit:10;stroke-dasharray:none;stroke-opacity:1"
       transform="matrix(0.13333333,0,0,-0.13333333,0,253.38667)" />
    <path
       id="path24"
       d="M 192.969,543.004 H 2680.33"
       style="fill:none;stroke:#000000;stroke-width:9.99831;stroke-linecap:round;stroke-linejoin:round;stroke-miterlimit:10;stroke-dasharray:none;stroke-opacity:1"
       transform="matrix(0.13333333,0,0,-0.13333333,0,253.38667)" />
    <path
       id="path25"
       d="M 192.969,187.668 H 2680.33"
       style="fill:none;stroke:#000000;stroke-width:9.99831;stroke-linecap:round;stroke-linejoin:round;stroke-miterlimit:10;stroke-dasharray:none;stroke-opacity:1"
       transform="matrix(0.13333333,0,0,-0.13333333,0,253.38667)" />
    <path
       id="path26"
       d="M 192.969,10 V 187.668"
       style="fill:none;stroke:#000000;stroke-width:9.99831;stroke-linecap:round;stroke-linejoin:round;stroke-miterlimit:10;stroke-dasharray:none;stroke-opacity:1"
       transform="matrix(0.13333333,0,0,-0.13333333,0,253.38667)" />
    <path
       id="path27"
       d="M 370.637,10 V 187.668"
       style="fill:none;stroke:#000000;stroke-width:9.99831;stroke-linecap:round;stroke-linejoin:round;stroke-miterlimit:10;stroke-dasharray:none;stroke-opacity:1"
       transform="matrix(0.13333333,0,0,-0.13333333,0,253.38667)" />
    <path
       id="path28"
       d="M 548.305,10 V 187.668"
       style="fill:none;stroke:#000000;stroke-width:9.99831;stroke-linecap:round;stroke-linejoin:round;stroke-miterlimit:10;stroke-dasharray:none;stroke-opacity:1"
       transform="matrix(0.13333333,0,0,-0.13333333,0,253.38667)" />
    <path
       id="path29"
       d="M 725.973,10 V 187.668"
       style="fill:none;stroke:#000000;stroke-width:9.99831;stroke-linecap:round;stroke-linejoin:round;stroke-miterlimit:10;stroke-dasharray:none;stroke-opacity:1"
       transform="matrix(0.13333333,0,0,-0.13333333,0,253.38667)" />
    <path
       id="path30"
       d="M 903.641,10 V 187.668"
       style="fill:none;stroke:#000000;stroke-width:9.99831;stroke-linecap:round;stroke-linejoin:round;stroke-miterlimit:10;stroke-dasharray:none;stroke-opacity:1"
       transform="matrix(0.13333333,0,0,-0.13333333,0,253.38667)" />
    <path
       id="path31"
       d="M 1081.31,10 V 187.668"
       style="fill:none;stroke:#000000;stroke-width:9.99831;stroke-linecap:round;stroke-linejoin:round;stroke-miterlimit:10;stroke-dasharray:none;stroke-opacity:1"
       transform="matrix(0.13333333,0,0,-0.13333333,0,253.38667)" />
    <path
       id="path32"
       d="M 1258.98,10 V 187.668"
       style="fill:none;stroke:#000000;stroke-width:9.99831;stroke-linecap:round;stroke-linejoin:round;stroke-miterlimit:10;stroke-dasharray:none;stroke-opacity:1"
       transform="matrix(0.13333333,0,0,-0.13333333,0,253.38667)" />
    <path
       id="path33"
       d="M 1436.65,10 V 187.668"
       style="fill:none;stroke:#000000;stroke-width:9.99831;stroke-linecap:round;stroke-linejoin:round;stroke-miterlimit:10;stroke-dasharray:none;stroke-opacity:1"
       transform="matrix(0.13333333,0,0,-0.13333333,0,253.38667)" />
    <path
       id="path34"
       d="M 1614.32,10 V 187.668"
       style="fill:none;stroke:#000000;stroke-width:9.99831;stroke-linecap:round;stroke-linejoin:round;stroke-miterlimit:10;stroke-dasharray:none;stroke-opacity:1"
       transform="matrix(0.13333333,0,0,-0.13333333,0,253.38667)" />
    <path
       id="path35"
       d="M 1791.98,10 V 187.668"
       style="fill:none;stroke:#000000;stroke-width:9.99831;stroke-linecap:round;stroke-linejoin:round;stroke-miterlimit:10;stroke-dasharray:none;stroke-opacity:1"
       transform="matrix(0.13333333,0,0,-0.13333333,0,253.38667)" />
    <path
       id="path36"
       d="M 1969.65,10 V 187.668"
       style="fill:none;stroke:#000000;stroke-width:9.99831;stroke-linecap:round;stroke-linejoin:round;stroke-miterlimit:10;stroke-dasharray:none;stroke-opacity:1"
       transform="matrix(0.13333333,0,0,-0.13333333,0,253.38667)" />
    <path
       id="path37"
       d="M 2147.32,10 V 187.668"
       style="fill:none;stroke:#000000;stroke-width:9.99831;stroke-linecap:round;stroke-linejoin:round;stroke-miterlimit:10;stroke-dasharray:none;stroke-opacity:1"
       transform="matrix(0.13333333,0,0,-0.13333333,0,253.38667)" />
    <path
       id="path38"
       d="M 2324.99,10 V 187.668"
       style="fill:none;stroke:#000000;stroke-width:9.99831;stroke-linecap:round;stroke-linejoin:round;stroke-miterlimit:10;stroke-dasharray:none;stroke-opacity:1"
       transform="matrix(0.13333333,0,0,-0.13333333,0,253.38667)" />
    <path
       id="path39"
       d="M 2502.66,10 V 187.668"
       style="fill:none;stroke:#000000;stroke-width:9.99831;stroke-linecap:round;stroke-linejoin:round;stroke-miterlimit:10;stroke-dasharray:none;stroke-opacity:1"
       transform="matrix(0.13333333,0,0,-0.13333333,0,253.38667)" />
    <path
       id="path40"
       d="M 2680.33,10 V 187.668"
       style="fill:none;stroke:#000000;stroke-width:9.99831;stroke-linecap:round;stroke-linejoin:round;stroke-miterlimit:10;stroke-dasharray:none;stroke-opacity:1"
       transform="matrix(0.13333333,0,0,-0.13333333,0,253.38667)" />
    <path
       id="path41"
       d="M 3213.33,543.004 V 1786.68"
       style="fill:none;stroke:#000000;stroke-width:9.99831;stroke-linecap:round;stroke-linejoin:round;stroke-miterlimit:10;stroke-dasharray:none;stroke-opacity:1"
       transform="matrix(0.13333333,0,0,-0.13333333,0,253.38667)" />
    <path
       id="path42"
       d="M 3213.33,1786.68 H 3391"
       style="fill:none;stroke:#000000;stroke-width:9.99831;stroke-linecap:round;stroke-linejoin:round;stroke-miterlimit:10;stroke-dasharray:none;stroke-opacity:1"
       transform="matrix(0.13333333,0,0,-0.13333333,0,253.38667)" />
    <path
       id="path43"
       d="M 3213.33,1609.02 H 3391"
       style="fill:none;stroke:#000000;stroke-width:9.99831;stroke-linecap:round;stroke-linejoin:round;stroke-miterlimit:10;stroke-dasharray:none;stroke-opacity:1"
       transform="matrix(0.13333333,0,0,-0.13333333,0,253.38667)" />
    <path
       id="path44"
       d="M 3213.33,1431.35 H 3391"
       style="fill:none;stroke:#000000;stroke-width:9.99831;stroke-linecap:round;stroke-linejoin:round;stroke-miterlimit:10;stroke-dasharray:none;stroke-opacity:1"
       transform="matrix(0.13333333,0,0,-0.13333333,0,253.38667)" />
    <path
       id="path45"
       d="M 3213.33,1253.68 H 3391"
       style="fill:none;stroke:#000000;stroke-width:9.99831;stroke-linecap:round;stroke-linejoin:round;stroke-miterlimit:10;stroke-dasharray:none;stroke-opacity:1"
       transform="matrix(0.13333333,0,0,-0.13333333,0,253.38667)" />
    <path
       id="path46"
       d="M 3213.33,1076.01 H 3391"
       style="fill:none;stroke:#000000;stroke-width:9.99831;stroke-linecap:round;stroke-linejoin:round;stroke-miterlimit:10;stroke-dasharray:none;stroke-opacity:1"
       transform="matrix(0.13333333,0,0,-0.13333333,0,253.38667)" />
    <path
       id="path47"
       d="M 3213.33,898.34 H 3391"
       style="fill:none;stroke:#000000;stroke-width:9.99831;stroke-linecap:round;stroke-linejoin:round;stroke-miterlimit:10;stroke-dasharray:none;stroke-opacity:1"
       transform="matrix(0.13333333,0,0,-0.13333333,0,253.38667)" />
    <path
       id="path48"
       d="M 3213.33,720.672 H 3391"
       style="fill:none;stroke:#000000;stroke-width:9.99831;stroke-linecap:round;stroke-linejoin:round;stroke-miterlimit:10;stroke-dasharray:none;stroke-opacity:1"
       transform="matrix(0.13333333,0,0,-0.13333333,0,253.38667)" />
    <path
       id="path49"
       d="M 3213.33,543.004 H 3391"
       style="fill:none;stroke:#000000;stroke-width:9.99831;stroke-linecap:round;stroke-linejoin:round;stroke-miterlimit:10;stroke-dasharray:none;stroke-opacity:1"
       transform="matrix(0.13333333,0,0,-0.13333333,0,253.38667)" />
    <path
       id="path50"
       d="M 3213.33,10 V 187.668"
       style="fill:none;stroke:#000000;stroke-width:9.99831;stroke-linecap:round;stroke-linejoin:round;stroke-miterlimit:10;stroke-dasharray:none;stroke-opacity:1"
       transform="matrix(0.13333333,0,0,-0.13333333,0,253.38667)" />
    <path
       id="path51"
       d="M 3213.33,187.668 H 3391"
       style="fill:none;stroke:#000000;stroke-width:9.99831;stroke-linecap:round;stroke-linejoin:round;stroke-miterlimit:10;stroke-dasharray:none;stroke-opacity:1"
       transform="matrix(0.13333333,0,0,-0.13333333,0,253.38667)" />
    <path
       id="path52"
       d="m 2.5415797,-6.7605078 c -0.5507813,0 -0.9726563,0.1757812 -1.3476563,0.5273437 -0.57421871,0.5507813 -0.96093746,1.7109375 -0.96093746,2.8710938 0,1.0898437 0.33984375,2.2617187 0.80859376,2.82421874 0.3632812,0.43359375 0.8789062,0.6796875 1.453125,0.6796875 0.515625,0 0.9375,-0.17578125 1.3007812,-0.515625 0.5859375,-0.55078125 0.9609375,-1.71093754 0.9609375,-2.91796874 0,-2.0507813 -0.9140625,-3.46875 -2.2148437,-3.46875 z m -0.035156,0.2695312 c 0.84375,0 1.2890625,1.125 1.2890625,3.2109375 0,2.0859375 -0.4335937,3.16406254 -1.3007812,3.16406254 -0.8554688,0 -1.3007813,-1.07812504 -1.3007813,-3.15234374 0,-2.1210938 0.4570313,-3.2226563 1.3125,-3.2226563 z m 18.1582033,-0.149414 -1.792969,0.9140625 v 0.140625 c 0.117187,-0.046875 0.222656,-0.09375 0.269531,-0.1054688 0.175781,-0.070312 0.351563,-0.1171875 0.445313,-0.1171875 0.210937,0 0.304687,0.1523438 0.304687,0.46875 v 4.53515628 c 0,0.328125 -0.08203,0.55078125 -0.246094,0.64453125 -0.152343,0.09375 -0.292968,0.1171875 -0.703125,0.12890625 v 0.15234375 h 2.753907 V -0.03101562 C 20.91072,-0.04273437 20.746658,-0.13648437 20.746658,-0.61695312 V -6.6169531 Z m 19.602539,5.390625 -0.128907,-0.046875 c -0.363281,0.56249998 -0.503906,0.65624998 -0.949218,0.65624998 h -2.390625 l 1.675781,-1.75781248 c 0.890625,-0.9257813 1.289062,-1.6875 1.289062,-2.4726563 0,-0.9960937 -0.808593,-1.7695312 -1.851562,-1.7695312 -0.550781,0 -1.066406,0.2226562 -1.441406,0.6210937 -0.316407,0.3398438 -0.46875,0.6679688 -0.644532,1.3710938 l 0.210938,0.046875 c 0.398437,-0.9726563 0.761719,-1.3007813 1.453125,-1.3007813 0.84375,0 1.40625,0.5742188 1.40625,1.4179688 0,0.7734375 -0.457031,1.7109375 -1.300781,2.6015625 l -1.769532,1.88671873 v 0.1171875 h 3.890625 z m 14.548828,-2.0419922 c 0.585937,0 0.808594,0.011719 1.054687,0.1054687 0.621094,0.2226563 1.007813,0.7851563 1.007813,1.4765625 0,0.84375004 -0.574219,1.48828129 -1.3125,1.48828129 -0.269531,0 -0.46875,-0.0703125 -0.832031,-0.3046875 -0.304688,-0.1875 -0.46875,-0.2578125 -0.644532,-0.2578125 -0.234375,0 -0.375,0.140625 -0.375,0.3515625 0,0.3515625 0.421875,0.57421875 1.125,0.57421875 0.773438,0 1.558594,-0.2578125 2.027344,-0.66796875 0.46875,-0.41015625 0.726563,-0.99609379 0.726563,-1.66406249 0,-0.5039063 -0.152344,-0.9726563 -0.445313,-1.2890625 -0.199219,-0.2226563 -0.386719,-0.3398438 -0.832031,-0.5273438 0.691406,-0.46875 0.9375,-0.84375 0.9375,-1.3828125 0,-0.8085937 -0.632813,-1.3710937 -1.558594,-1.3710937 -0.492187,0 -0.9375,0.1757812 -1.289062,0.4921875 -0.304688,0.2695312 -0.457032,0.5273437 -0.679688,1.1367187 l 0.152344,0.035156 c 0.410156,-0.7265625 0.867187,-1.0546875 1.488281,-1.0546875 0.65625,0 1.101563,0.4335937 1.101563,1.0664062 0,0.3632813 -0.152344,0.7148438 -0.398438,0.9726563 -0.304687,0.2929687 -0.574219,0.4453125 -1.253906,0.6796875 z m 22.877929,2.29687499 c -0.304687,0 -0.550781,0.2578125 -0.550781,0.5625 0,0.29296875 0.246094,0.5390625 0.539063,0.5390625 0.304687,0 0.5625,-0.24609375 0.5625,-0.5390625 0,-0.3046875 -0.257813,-0.5625 -0.550782,-0.5625 z m 3.960938,0 c -0.304688,0 -0.550781,0.2578125 -0.550781,0.5625 0,0.29296875 0.246093,0.5390625 0.539062,0.5390625 0.304688,0 0.5625,-0.24609375 0.5625,-0.5390625 0,-0.3046875 -0.257812,-0.5625 -0.550781,-0.5625 z m 3.960937,0 c -0.304687,0 -0.550781,0.2578125 -0.550781,0.5625 0,0.29296875 0.246094,0.5390625 0.539063,0.5390625 0.304687,0 0.5625,-0.24609375 0.5625,-0.5390625 0,-0.3046875 -0.257813,-0.5625 -0.550782,-0.5625 z M -11.857834,8.5969141 c -0.550782,0 -0.972657,0.1757812 -1.347657,0.5273437 -0.574218,0.5507813 -0.960937,1.7109372 -0.960937,2.8710942 0,1.089843 0.339844,2.261718 0.808594,2.824218 0.363281,0.433594 0.878906,0.679688 1.453125,0.679688 0.515625,0 0.9375,-0.175781 1.300781,-0.515625 0.585937,-0.550781 0.9609374,-1.710938 0.9609374,-2.917969 0,-2.050781 -0.9140624,-3.4687499 -2.2148434,-3.4687499 z m -0.03516,0.2695312 c 0.84375,0 1.289063,1.125 1.289063,3.2109377 0,2.085937 -0.433594,3.164062 -1.300781,3.164062 -0.855469,0 -1.300782,-1.078125 -1.300782,-3.152343 0,-2.1210942 0.457032,-3.2226567 1.3125,-3.2226567 z m 0.398438,17.4931637 -1.792969,0.914063 v 0.140625 c 0.117188,-0.04687 0.222656,-0.09375 0.269531,-0.105469 0.175782,-0.07031 0.351563,-0.117187 0.445313,-0.117187 0.210937,0 0.304687,0.152343 0.304687,0.46875 v 4.535156 c 0,0.328125 -0.08203,0.550781 -0.246093,0.644531 -0.152344,0.09375 -0.292969,0.117188 -0.703125,0.128906 v 0.152344 h 2.753906 v -0.152344 c -0.785156,-0.01172 -0.949219,-0.105468 -0.949219,-0.585937 v -6 z M -9.6547094,49.51 -9.7836156,49.463125 c -0.3632814,0.5625 -0.5039064,0.65625 -0.9492184,0.65625 h -2.390625 l 1.675781,-1.757812 c 0.890625,-0.925782 1.289062,-1.6875 1.289062,-2.472657 0,-0.996093 -0.808593,-1.769531 -1.851562,-1.769531 -0.550781,0 -1.066406,0.222656 -1.441406,0.621094 -0.316407,0.339844 -0.46875,0.667969 -0.644532,1.371094 l 0.210938,0.04687 c 0.398437,-0.972657 0.761719,-1.300782 1.453125,-1.300782 0.84375,0 1.40625,0.574219 1.40625,1.417969 0,0.773438 -0.457031,1.710938 -1.300781,2.601563 l -1.769532,1.886718 v 0.117188 h 3.890625 z m -0.9726566,23.173828 c -0.304687,0 -0.550781,0.257813 -0.550781,0.5625 0,0.292969 0.246094,0.539063 0.539063,0.539063 0.304687,0 0.5625,-0.246094 0.5625,-0.539063 0,-0.304687 -0.257813,-0.5625 -0.550782,-0.5625 z m 0,3.960938 c -0.304687,0 -0.550781,0.257812 -0.550781,0.5625 0,0.292968 0.246094,0.539062 0.539063,0.539062 0.304687,0 0.5625,-0.246094 0.5625,-0.539062 0,-0.304688 -0.257813,-0.5625 -0.550782,-0.5625 z m 0,3.958007 c -0.304687,0 -0.550781,0.257813 -0.550781,0.5625 0,0.292969 0.246094,0.539063 0.539063,0.539063 0.304687,0 0.5625,-0.246094 0.5625,-0.539063 0,-0.304687 -0.257813,-0.5625 -0.550782,-0.5625 z M 264.29451,59.482656 c -0.30469,0 -0.55078,0.257813 -0.55078,0.5625 0,0.292969 0.24609,0.539063 0.53906,0.539063 0.30469,0 0.5625,-0.246094 0.5625,-0.539063 0,-0.304687 -0.25781,-0.5625 -0.55078,-0.5625 z m 3.96094,0 c -0.30469,0 -0.55078,0.257813 -0.55078,0.5625 0,0.292969 0.24609,0.539063 0.53906,0.539063 0.30469,0 0.5625,-0.246094 0.5625,-0.539063 0,-0.304687 -0.25781,-0.5625 -0.55078,-0.5625 z m 3.958,0 c -0.30468,0 -0.55078,0.257813 -0.55078,0.5625 0,0.292969 0.2461,0.539063 0.53907,0.539063 0.30468,0 0.5625,-0.246094 0.5625,-0.539063 0,-0.304687 -0.25782,-0.5625 -0.55079,-0.5625 z m -7.91894,106.561524 c -0.30469,0 -0.55078,0.25781 -0.55078,0.5625 0,0.29297 0.24609,0.53906 0.53906,0.53906 0.30469,0 0.5625,-0.24609 0.5625,-0.53906 0,-0.30469 -0.25781,-0.5625 -0.55078,-0.5625 z m 3.96094,0 c -0.30469,0 -0.55078,0.25781 -0.55078,0.5625 0,0.29297 0.24609,0.53906 0.53906,0.53906 0.30469,0 0.5625,-0.24609 0.5625,-0.53906 0,-0.30469 -0.25781,-0.5625 -0.55078,-0.5625 z m 3.958,0 c -0.30468,0 -0.55078,0.25781 -0.55078,0.5625 0,0.29297 0.2461,0.53906 0.53907,0.53906 0.30468,0 0.5625,-0.24609 0.5625,-0.53906 0,-0.30469 -0.25782,-0.5625 -0.55079,-0.5625 z M 51.174392,143.72289 c -0.304687,0 -0.550781,0.25781 -0.550781,0.5625 0,0.29297 0.246094,0.53906 0.539062,0.53906 0.304688,0 0.5625,-0.24609 0.5625,-0.53906 0,-0.30469 -0.257812,-0.5625 -0.550781,-0.5625 z m 0,3.96094 c -0.304687,0 -0.550781,0.25781 -0.550781,0.5625 0,0.29297 0.246094,0.53906 0.539062,0.53906 0.304688,0 0.5625,-0.24609 0.5625,-0.53906 0,-0.30469 -0.257812,-0.5625 -0.550781,-0.5625 z m 0,3.96094 c -0.304687,0 -0.550781,0.25781 -0.550781,0.5625 0,0.29296 0.246094,0.53906 0.539062,0.53906 0.304688,0 0.5625,-0.2461 0.5625,-0.53906 0,-0.30469 -0.257812,-0.5625 -0.550781,-0.5625 z M 211.1324,143.72289 c -0.30469,0 -0.55078,0.25781 -0.55078,0.5625 0,0.29297 0.24609,0.53906 0.53906,0.53906 0.30469,0 0.5625,-0.24609 0.5625,-0.53906 0,-0.30469 -0.25781,-0.5625 -0.55078,-0.5625 z m 0,3.96094 c -0.30469,0 -0.55078,0.25781 -0.55078,0.5625 0,0.29297 0.24609,0.53906 0.53906,0.53906 0.30469,0 0.5625,-0.24609 0.5625,-0.53906 0,-0.30469 -0.25781,-0.5625 -0.55078,-0.5625 z m 0,3.96094 c -0.30469,0 -0.55078,0.25781 -0.55078,0.5625 0,0.29296 0.24609,0.53906 0.53906,0.53906 0.30469,0 0.5625,-0.2461 0.5625,-0.53906 0,-0.30469 -0.25781,-0.5625 -0.55078,-0.5625 z m 88.89258,-158.525395 -1.79297,0.9140625 v 0.140625 c 0.11719,-0.046875 0.22266,-0.09375 0.26953,-0.1054687 0.17578,-0.070312 0.35156,-0.1171875 0.44531,-0.1171875 0.21094,0 0.30469,0.1523437 0.30469,0.46875 v 4.5351562 c 0,0.328125 -0.082,0.55078125 -0.24609,0.64453125 -0.15235,0.09375 -0.29297,0.1171875 -0.70313,0.12890625 v 0.15234375 h 2.75391 V -0.27125 c -0.78516,-0.0117188 -0.94922,-0.10546875 -0.94922,-0.5859375 v -6 z m 3.94043,0.9375 h 1.96875 c 0.15234,0 0.19922,-0.023437 0.22265,-0.09375 l 0.38672,-0.890625 -0.0937,-0.070312 C 306.29744,-6.786875 306.20369,-6.74 305.99275,-6.74 h -2.09765 l -1.08985,2.3671875 v 0.058594 c 0,0.046875 0.0352,0.082031 0.11719,0.082031 0.31641,0 0.71484,0.070312 1.125,0.1992188 1.14844,0.3632812 1.6875,0.984375 1.6875,1.9804687 0,0.9492188 -0.62109,1.69921875 -1.39453,1.69921875 -0.19922,0 -0.375,-0.0703125 -0.66797,-0.28125 -0.31641,-0.234375 -0.55078,-0.33984375 -0.76172,-0.33984375 -0.29297,0 -0.43359,0.12890625 -0.43359,0.375 0,0.375 0.46875,0.62109375 1.21875,0.62109375 0.84375,0 1.55859,-0.26953125 2.0625,-0.78515625 0.45703,-0.4453125 0.66797,-1.0195312 0.66797,-1.7695312 0,-0.7265625 -0.1875,-1.1835938 -0.69141,-1.6875 -0.43359,-0.4335938 -1.00781,-0.6679688 -2.17969,-0.8789063 z m 3.82031,6.046875 c 1.125,-0.12890625 1.67578,-0.328125 2.35547,-0.80859375 1.03125,-0.76171875 1.65234,-2.00390625 1.65234,-3.35156245 0,-1.6523438 -0.92578,-2.8242188 -2.21484,-2.8242188 -1.18359,0 -2.07422,1.0195313 -2.07422,2.3671875 0,1.21875 0.71484,2.0273438 1.79297,2.0273438 0.55078,0 0.97266,-0.1640625 1.5,-0.5742188 -0.41016,1.6289063 -1.52344,2.70703125 -3.03516,2.96484375 z m 3.03516,-3.7734375 c 0,0.1992188 -0.0469,0.2929688 -0.15235,0.3867188 -0.28125,0.234375 -0.64453,0.3632812 -1.00781,0.3632812 -0.76172,0 -1.24219,-0.75 -1.24219,-1.9335937 0,-0.5742188 0.16407,-1.171875 0.375,-1.4296875 0.16407,-0.1992188 0.41016,-0.3164063 0.70313,-0.3164063 0.86719,0 1.32422,0.8671875 1.32422,2.5429688 z"
       style="fill:#000000;fill-opacity:1;fill-rule:nonzero;stroke:none"
       aria-label="0&#10;12&#10;3...&#10;0&#10;1&#10;2&#10;.&#10;.&#10;.&#10;...&#10;...&#10;.&#10;.&#10;.&#10;.&#10;.&#10;.&#10;159&#10;129"
       transform="matrix(1.3333333,0,0,1.3333333,34.240133,10.986667)"
       sodipodi:nodetypes="scscscsssssssccccssscccccsccccsccsscccsscccccccsscsssssccsscccsscccsssssssssssssssscscscsssssssccccssscccccsccccsccsscccsscccccsssssssssssssssssssssssssssssssssssssssssssssssssssssssssssssssssssssssssssccccssscccccscccscccsccsscsscssscssccccsssscccscsscsss" />
    <text
       id="text61-2-6"
       xml:space="preserve"
       x="0.87361032"
       y="246.82295"
       style="font-size:17.8943px;stroke-width:1.33332"
       transform="scale(1.0092648,0.99082026)"><tspan
         id="tspan62-3-50"
         style="font-variant:normal;font-weight:normal;font-stretch:normal;font-size:13.4207px;font-family:'Times New Roman';writing-mode:lr-tb;fill:#000000;fill-opacity:1;fill-rule:nonzero;stroke:none;stroke-width:1.33332"
         x="0.87361032"
         y="246.82295">119</tspan></text>
  </g>
</svg>
